# This file uses centimeters as units for non-parametric coordinates.

mtllib 2salleGrille.mtl
g default
v -22.283804 0.001184 15.086037
v -20.374310 0.001184 15.086037
v -20.374308 0.001184 13.563736
v -22.283802 0.001184 13.563736
v -17.819717 0.001184 15.086037
v -17.819717 0.001184 13.563736
v -30.386250 0.001184 13.563736
v -30.386250 0.001184 15.086037
v -20.374308 -0.166234 13.563736
v -22.283802 -0.166234 13.563736
v -17.819717 -0.166234 13.563736
v -30.386250 -0.166234 13.563736
v -20.374308 -0.166234 15.086037
v -22.283802 -0.166234 15.086037
v -17.819717 -0.166234 15.086037
v -30.386250 -0.166234 15.086037
v -20.374308 -3.012527 15.086037
v -22.283802 -3.012527 15.086037
v -17.819717 -3.012527 15.086037
v -30.386250 -3.012527 15.086037
v -22.283802 0.001184 7.935768
v -22.283802 0.001184 9.458069
v -20.374308 0.001184 9.458069
v -20.374308 0.001184 7.935768
v -17.819717 0.001184 9.458069
v -17.819717 0.001184 7.935768
v -30.386248 0.001184 7.935768
v -30.386250 0.001184 9.458069
v -22.283802 -0.166234 9.458069
v -20.374308 -0.166234 9.458069
v -17.819717 -0.166234 9.458069
v -30.386250 -0.166234 9.458069
v -22.283802 -0.166234 7.935768
v -20.374308 -0.166234 7.935768
v -17.819717 -0.166234 7.935768
v -30.386250 -0.166234 7.935768
v -22.283802 -3.012527 8.015406
v -20.374308 -3.012527 8.015406
v -17.819717 -3.012527 8.015406
v -30.386250 -3.012527 8.015406
v -32.037701 0.001184 7.935768
v -32.037701 0.001184 9.458069
v -32.037701 2.390888 7.935768
v -32.037701 2.390888 9.458069
v -20.374310 2.390888 15.086037
v -17.819717 2.390888 15.086037
v -30.386250 2.390888 15.086037
v -22.283804 2.390888 15.086037
v -17.819717 -3.012527 13.576995
v -17.819717 -3.012527 9.524447
v -20.374308 -3.012527 9.524447
v -20.374308 -3.012527 13.576995
v -22.283802 -3.012527 9.524447
v -22.283802 -3.012527 13.576995
v -30.386248 -3.012527 9.524447
v -30.386248 -3.012527 13.576995
v -20.374308 2.390888 7.935768
v -22.283802 2.390888 7.935768
v -17.819717 2.390888 7.935768
v -30.386250 2.390888 7.935768
v -30.386248 2.390888 9.458069
v -17.819717 2.390888 13.590321
v -17.819717 2.390888 9.444310
v -30.386248 2.390888 13.563736
v -20.374308 2.390888 9.447098
v -22.283802 2.390888 9.449179
v -20.374308 2.390888 13.577085
v -22.283802 2.390888 13.577623
vt 0.201093 0.979918
vt 0.170851 0.979918
vt 0.170851 0.934669
vt 0.201093 0.934669
vt 0.057389 0.852503
vt 0.057389 0.880734
vt 0.004139 0.880734
vt 0.004139 0.852503
vt 0.057389 0.957302
vt 0.004139 0.957302
vt 0.060521 0.880734
vt 0.060521 0.957302
vt 0.057389 0.985530
vt 0.004139 0.985530
vt 0.105230 0.880734
vt 0.105230 0.957302
vt 0.060521 0.852503
vt 0.105230 0.852503
vt 0.105230 0.986274
vt 0.060521 0.986274
vt 0.056702 0.713662
vt 0.056702 0.742052
vt 0.003388 0.742052
vt 0.003388 0.713662
vt 0.056702 0.818458
vt 0.003388 0.818458
vt 0.059838 0.818458
vt 0.059838 0.742052
vt 0.056702 0.846848
vt 0.003388 0.846848
vt 0.104600 0.742052
vt 0.104600 0.818458
vt 0.059838 0.846848
vt 0.104600 0.846848
vt 0.387802 0.580842
vt 0.387802 0.547127
vt 0.416418 0.547127
vt 0.416418 0.580842
vt 0.387802 0.502022
vt 0.416418 0.502022
vt 0.416418 0.723903
vt 0.387802 0.723903
vt 0.422853 0.580842
vt 0.422853 0.547127
vt 0.451472 0.547127
vt 0.451472 0.580842
vt 0.422853 0.502022
vt 0.451472 0.502022
vt 0.422853 0.723903
vt 0.451472 0.723903
vt 0.381409 0.583853
vt 0.352932 0.583853
vt 0.352976 0.548131
vt 0.381457 0.548131
vt 0.381426 0.735433
vt 0.352950 0.735433
vt 0.352944 0.500340
vt 0.381420 0.500340
vt 0.381431 0.766328
vt 0.352934 0.766328
vt 0.349800 0.583853
vt 0.321319 0.583853
vt 0.321365 0.548131
vt 0.349843 0.548131
vt 0.349818 0.735433
vt 0.321337 0.735433
vt 0.321327 0.500340
vt 0.349812 0.500340
vt 0.111961 0.846891
vt 0.111961 0.771075
vt 0.159752 0.771075
vt 0.159752 0.846891
vt 0.111961 0.742844
vt 0.159752 0.742844
vt 0.195475 0.771075
vt 0.195475 0.846891
vt 0.159752 0.875122
vt 0.111961 0.875122
vt 0.195475 0.742844
vt 0.347057 0.771075
vt 0.347057 0.846891
vt 0.195475 0.875122
vt 0.347057 0.742844
vt 0.347057 0.875122
vt 0.062603 0.500475
vt 0.090889 0.500475
vt 0.090889 0.548158
vt 0.062603 0.548158
vt 0.167902 0.500475
vt 0.167902 0.548158
vt 0.090889 0.584360
vt 0.062603 0.584360
vt 0.196354 0.500475
vt 0.271274 0.926952
vt 0.167902 0.584360
vt 0.090889 0.735600
vt 0.062603 0.735600
vt 0.196354 0.584360
vt 0.167902 0.735600
vt 0.265255 0.925708
vt 0.257883 0.583217
vt 0.257883 0.547494
vt 0.311132 0.547494
vt 0.311132 0.583217
vt 0.257883 0.499702
vt 0.311132 0.499702
vt 0.257883 0.734799
vt 0.311132 0.734799
vt 0.253521 0.583210
vt 0.200262 0.583210
vt 0.200262 0.547480
vt 0.253521 0.547480
vt 0.253521 0.734821
vt 0.200262 0.734821
vt 0.200262 0.499679
vt 0.253521 0.499679
vt 0.316465 0.879672
vt 0.316465 0.926952
vt 0.112986 0.881203
vt 0.265255 0.881203
vt 0.008811 0.558717
vt 0.008811 0.533630
vt 0.054061 0.533630
vt 0.054061 0.558717
vt 0.008811 0.500066
vt 0.054061 0.500066
vt 0.008811 0.699885
vt 0.054061 0.699885
vt 0.232418 0.979918
vt 0.232418 0.934669
vt 0.112986 0.925708
vt 0.196354 0.735600
vt 0.196354 0.548158
vt 0.271274 0.879672
vt 0.110774 0.979918
vt 0.110774 0.934669
vn 0.000000 1.000000 -0.000000
vn 0.000000 1.000000 -0.000000
vn 0.000000 1.000000 -0.000000
vn 0.000000 1.000000 -0.000000
vn 0.000000 1.000000 0.000000
vn 0.000000 1.000000 0.000000
vn 0.000000 1.000000 0.000000
vn 0.000000 1.000000 0.000000
vn 0.000000 1.000000 0.000000
vn 0.000000 1.000000 0.000000
vn 0.000000 1.000000 0.000000
vn 0.000000 1.000000 0.000000
vn 0.000000 0.000000 -1.000000
vn 0.000000 0.000000 -1.000000
vn 0.000000 0.000000 -1.000000
vn 0.000000 0.000000 -1.000000
vn 0.000000 0.000000 -1.000000
vn 0.000000 0.000000 -1.000000
vn 0.000000 0.000000 -1.000000
vn 0.000000 0.000000 -1.000000
vn 0.000000 0.000000 -1.000000
vn 0.000000 0.000000 -1.000000
vn 0.000000 0.000000 -1.000000
vn 0.000000 0.000000 -1.000000
vn 0.000000 -1.000000 0.000000
vn 0.000000 -1.000000 0.000000
vn 0.000000 -1.000000 0.000000
vn 0.000000 -1.000000 0.000000
vn 0.000000 -1.000000 0.000000
vn 0.000000 -1.000000 0.000000
vn 0.000000 -1.000000 0.000000
vn 0.000000 -1.000000 0.000000
vn 0.000000 -1.000000 0.000000
vn 0.000000 -1.000000 0.000000
vn 0.000000 -1.000000 0.000000
vn 0.000000 -1.000000 0.000000
vn 0.000000 0.000000 -1.000000
vn 0.000000 0.000000 -1.000000
vn 0.000000 0.000000 -1.000000
vn 0.000000 0.000000 -1.000000
vn 0.000000 0.000000 -1.000000
vn 0.000000 0.000000 -1.000000
vn 0.000000 0.000000 -1.000000
vn 0.000000 0.000000 -1.000000
vn 0.000000 0.000000 -1.000000
vn 0.000000 0.000000 -1.000000
vn 0.000000 0.000000 -1.000000
vn 0.000000 0.000000 -1.000000
vn 0.000000 1.000000 0.000000
vn 0.000000 1.000000 0.000000
vn 0.000000 1.000000 0.000000
vn 0.000000 1.000000 0.000000
vn 0.000000 1.000000 0.000000
vn 0.000000 1.000000 0.000000
vn 0.000000 1.000000 0.000000
vn 0.000000 1.000000 0.000000
vn 0.000000 1.000000 0.000000
vn 0.000000 1.000000 0.000000
vn 0.000000 1.000000 0.000000
vn 0.000000 1.000000 0.000000
vn 0.000000 0.000000 1.000000
vn 0.000000 0.000000 1.000000
vn 0.000000 0.000000 1.000000
vn 0.000000 0.000000 1.000000
vn 0.000000 0.000000 1.000000
vn 0.000000 0.000000 1.000000
vn 0.000000 0.000000 1.000000
vn 0.000000 0.000000 1.000000
vn 0.000000 0.000000 1.000000
vn 0.000000 0.000000 1.000000
vn 0.000000 0.000000 1.000000
vn 0.000000 0.000000 1.000000
vn 0.000000 -1.000000 0.000000
vn 0.000000 -1.000000 0.000000
vn 0.000000 -1.000000 0.000000
vn 0.000000 -1.000000 0.000000
vn 0.000000 -1.000000 0.000000
vn 0.000000 -1.000000 0.000000
vn 0.000000 -1.000000 0.000000
vn 0.000000 -1.000000 0.000000
vn 0.000000 -1.000000 0.000000
vn 0.000000 -1.000000 0.000000
vn 0.000000 -1.000000 0.000000
vn 0.000000 -1.000000 0.000000
vn 0.000000 0.027968 0.999609
vn 0.000000 0.027968 0.999609
vn 0.000000 0.027968 0.999609
vn 0.000000 0.027968 0.999609
vn 0.000000 0.027968 0.999609
vn 0.000000 0.027968 0.999609
vn 0.000000 0.027968 0.999609
vn 0.000000 0.027968 0.999609
vn 0.000000 0.027968 0.999609
vn 0.000000 0.027968 0.999609
vn 0.000000 0.027968 0.999609
vn 0.000000 0.027968 0.999609
vn 0.000000 1.000000 -0.000000
vn 0.000000 1.000000 -0.000000
vn 0.000000 1.000000 -0.000000
vn 0.000000 1.000000 -0.000000
vn 1.000000 0.000000 0.000000
vn 1.000000 0.000000 0.000000
vn 1.000000 0.000000 0.000000
vn 1.000000 0.000000 0.000000
vn 0.000000 0.000000 -1.000000
vn 0.000000 0.000000 -1.000000
vn 0.000000 0.000000 -1.000000
vn 0.000000 0.000000 -1.000000
vn 0.000000 0.000000 -1.000000
vn 0.000000 0.000000 -1.000000
vn 0.000000 0.000000 -1.000000
vn 0.000000 0.000000 -1.000000
vn 0.000000 1.000000 0.000000
vn 0.000000 1.000000 0.000000
vn 0.000000 1.000000 0.000000
vn 0.000000 1.000000 0.000000
vn 0.000000 1.000000 0.000000
vn 0.000000 1.000000 0.000000
vn 0.000000 1.000000 0.000000
vn 0.000000 1.000000 0.000000
vn 0.000000 1.000000 0.000000
vn 0.000000 1.000000 0.000000
vn 0.000000 1.000000 0.000000
vn 0.000000 1.000000 0.000000
vn 0.000000 1.000000 0.000000
vn 0.000000 1.000000 0.000000
vn 0.000000 1.000000 0.000000
vn 0.000000 1.000000 0.000000
vn 0.000000 1.000000 0.000000
vn 0.000000 1.000000 0.000000
vn 0.000000 1.000000 0.000000
vn 0.000000 1.000000 0.000000
vn 0.000000 1.000000 -0.000000
vn 0.000000 1.000000 -0.000000
vn 0.000000 1.000000 -0.000000
vn 0.000000 1.000000 -0.000000
vn 0.000000 1.000000 0.000000
vn 0.000000 1.000000 0.000000
vn 0.000000 1.000000 0.000000
vn 0.000000 1.000000 0.000000
vn 0.000000 1.000000 0.000000
vn 0.000000 1.000000 0.000000
vn 0.000000 1.000000 0.000000
vn 0.000000 1.000000 0.000000
vn 0.000000 1.000000 0.000000
vn 0.000000 1.000000 0.000000
vn 0.000000 1.000000 0.000000
vn 0.000000 1.000000 0.000000
vn -1.000000 0.000000 0.000000
vn -1.000000 0.000000 0.000000
vn -1.000000 0.000000 0.000000
vn -1.000000 0.000000 0.000000
vn -1.000000 0.000000 0.000000
vn -1.000000 0.000000 0.000000
vn -1.000000 0.000000 0.000000
vn -1.000000 0.000000 0.000000
vn -1.000000 0.000000 0.000000
vn -1.000000 0.000000 0.000000
vn -1.000000 0.000000 0.000000
vn -1.000000 0.000000 0.000000
vn 1.000000 0.000000 -0.000001
vn 1.000000 0.000000 -0.000001
vn 1.000000 0.000000 -0.000001
vn 1.000000 0.000000 -0.000001
vn 1.000000 -0.000000 0.000001
vn 1.000000 -0.000000 0.000001
vn 1.000000 -0.000000 0.000001
vn 1.000000 -0.000000 0.000001
vn 1.000000 0.000001 0.000000
vn 1.000000 0.000001 0.000000
vn 1.000000 0.000001 0.000000
vn 1.000000 0.000001 0.000000
vn 0.000000 0.000000 1.000000
vn 0.000000 0.000000 1.000000
vn 0.000000 0.000000 1.000000
vn 0.000000 0.000000 1.000000
vn 0.000000 0.000000 1.000000
vn 0.000000 0.000000 1.000000
vn 0.000000 0.000000 1.000000
vn 0.000000 0.000000 1.000000
vn 0.000000 0.000000 1.000000
vn 0.000000 0.000000 1.000000
vn 0.000000 0.000000 1.000000
vn 0.000000 0.000000 1.000000
vn 0.000000 0.000000 1.000000
vn 0.000000 0.000000 1.000000
vn 0.000000 0.000000 1.000000
vn 0.000000 0.000000 1.000000
vn 0.000000 0.000000 -1.000000
vn 0.000000 0.000000 -1.000000
vn 0.000000 0.000000 -1.000000
vn 0.000000 0.000000 -1.000000
vn -1.000000 0.000000 0.000000
vn -1.000000 0.000000 0.000000
vn -1.000000 0.000000 0.000000
vn -1.000000 0.000000 0.000000
vn 1.000000 0.000000 0.000000
vn 1.000000 0.000000 0.000000
vn 1.000000 0.000000 0.000000
vn 1.000000 0.000000 0.000000
vn -1.000000 0.000000 0.000000
vn -1.000000 0.000000 0.000000
vn -1.000000 0.000000 0.000000
vn -1.000000 0.000000 0.000000
vn -1.000000 -0.000001 0.000000
vn -1.000000 -0.000001 0.000000
vn -1.000000 -0.000001 0.000000
vn -1.000000 -0.000001 0.000000
vn -1.000000 0.000000 0.000000
vn -1.000000 0.000000 0.000000
vn -1.000000 0.000000 0.000000
vn -1.000000 0.000000 0.000000
vn 1.000000 0.000000 0.000001
vn 1.000000 0.000000 0.000001
vn 1.000000 0.000000 0.000001
vn 1.000000 0.000000 0.000001
vn 1.000000 -0.000001 0.000000
vn 1.000000 -0.000001 0.000000
vn 1.000000 -0.000001 0.000000
vn 1.000000 -0.000001 0.000000
vn 0.000000 -1.000000 0.000000
vn 0.000000 -1.000000 0.000000
vn 0.000000 -1.000000 0.000000
vn 0.000000 -1.000000 0.000000
vn 0.000000 -1.000000 0.000000
vn 0.000000 -1.000000 0.000000
vn 0.000000 -1.000000 0.000000
vn 0.000000 -1.000000 0.000000
vn 0.000000 -1.000000 0.000000
vn 0.000000 -1.000000 0.000000
vn 0.000000 -1.000000 0.000000
vn 0.000000 -1.000000 0.000000
vn 0.000000 -1.000000 0.000000
vn 0.000000 -1.000000 0.000000
vn 0.000000 -1.000000 0.000000
vn 0.000000 -1.000000 0.000000
vn 0.000000 -1.000000 0.000000
vn 0.000000 -1.000000 0.000000
vn 0.000000 -1.000000 0.000000
vn 0.000000 -1.000000 0.000000
vn 0.000000 -1.000000 0.000000
vn 0.000000 -1.000000 0.000000
vn 0.000000 -1.000000 0.000000
vn 0.000000 -1.000000 0.000000
vn 0.000000 -1.000000 0.000000
vn 0.000000 -1.000000 0.000000
vn 0.000000 -1.000000 0.000000
vn 0.000000 -1.000000 0.000000
vn 0.000000 -1.000000 0.000000
vn 0.000000 -1.000000 0.000000
vn 0.000000 -1.000000 0.000000
vn 0.000000 -1.000000 0.000000
vn 0.000000 -1.000000 0.000000
vn 0.000000 -1.000000 0.000000
vn 0.000000 -1.000000 0.000000
vn 0.000000 -1.000000 0.000000
s off
g initialShadingGroup salleGrille
f 1/35/1 2/36/2 3/37/3 4/38/4
f 3/37/5 2/36/6 5/39/7 6/40/8
f 1/35/9 4/38/10 7/41/11 8/42/12
f 4/38/13 3/37/14 9/44/15 10/43/16
f 3/37/17 6/40/18 11/47/19 9/44/20
f 7/41/21 4/38/22 10/43/23 12/49/24
f 10/43/25 9/44/26 13/45/27 14/46/28
f 9/44/29 11/47/30 15/48/31 13/45/32
f 12/49/33 10/43/34 14/46/35 16/50/36
f 14/101/37 13/102/38 17/103/39 18/104/40
f 13/102/41 15/105/42 19/106/43 17/103/44
f 16/107/45 14/101/46 18/104/47 20/108/48
f 21/51/49 22/52/50 23/53/51 24/54/52
f 23/53/53 25/57/54 26/58/55 24/54/56
f 21/51/57 27/55/58 28/56/59 22/52/60
f 22/52/61 29/61/62 30/64/63 23/53/64
f 23/53/65 30/64/66 31/68/67 25/57/68
f 28/56/69 32/65/70 29/61/71 22/52/72
f 29/61/73 33/62/74 34/63/75 30/64/76
f 30/64/77 34/63/78 35/67/79 31/68/80
f 32/65/81 36/66/82 33/62/83 29/61/84
f 33/109/85 37/110/86 38/111/87 34/112/88
f 34/112/89 38/111/90 39/115/91 35/116/92
f 36/113/93 40/114/94 37/110/95 33/109/96
f 28/56/97 27/55/98 41/59/99 42/60/100
f 42/1/101 41/2/102 43/3/103 44/4/104
f 5/117/105 2/118/106 45/94/107 46/134/108
f 1/119/109 8/120/110 47/100/111 48/131/112
f 49/69/113 50/70/114 51/71/115 52/72/116
f 52/72/117 51/71/118 53/75/119 54/76/120
f 54/76/121 53/75/122 55/80/123 56/81/124
f 18/82/125 17/77/126 52/72/127 54/76/128
f 17/77/129 19/78/130 49/69/131 52/72/132
f 20/84/133 18/82/134 54/76/135 56/81/136
f 51/71/137 50/70/138 39/73/139 38/74/140
f 53/75/141 51/71/142 38/74/143 37/79/144
f 55/80/145 53/75/146 37/79/147 40/83/148
f 15/5/149 11/6/150 49/7/151 19/8/152
f 31/9/153 35/13/154 39/14/155 50/10/156
f 49/7/157 11/6/158 31/9/159 50/10/160
f 36/21/161 32/22/162 55/23/163 40/24/164
f 12/25/165 16/29/166 20/30/167 56/26/168
f 55/23/169 32/22/170 12/25/171 56/26/172
f 21/121/173 24/122/174 57/123/175 58/124/176
f 24/122/177 26/125/178 59/126/179 57/123/180
f 27/127/181 21/121/182 58/124/183 60/128/184
f 41/2/185 27/135/186 60/136/187 43/3/188
f 28/129/189 42/1/190 44/4/191 61/130/192
f 11/6/193 6/11/194 25/12/195 31/9/196
f 7/27/197 12/25/198 32/22/199 28/28/200
f 5/17/201 46/18/202 62/15/203 6/11/204
f 25/12/205 63/16/206 59/19/207 26/20/208
f 6/11/209 62/15/210 63/16/211 25/12/212
f 8/33/213 7/27/214 64/32/215 47/34/216
f 28/28/217 61/31/218 64/32/219 7/27/220
f 59/85/221 63/86/222 65/87/223 57/88/224
f 58/92/225 66/91/226 61/96/227 60/97/228
f 57/88/229 65/87/230 66/91/231 58/92/232
f 66/91/233 65/87/234 67/90/235 68/95/236
f 62/89/237 67/90/238 65/87/239 63/86/240
f 46/93/241 45/133/242 67/90/243 62/89/244
f 68/95/245 67/90/246 45/133/247 48/98/248
f 64/99/249 61/96/250 66/91/251 68/95/252
f 47/132/253 64/99/254 68/95/255 48/98/256
