# This file uses centimeters as units for non-parametric coordinates.

mtllib 3SalleChiante.mtl
g default
v -25.277061 8.347390 6.308666
v -27.005924 8.347390 6.308666
v -27.005924 10.106551 6.308666
v -25.277061 10.106551 6.308666
v -27.005936 8.347390 4.711451
v -25.277069 8.347390 4.710664
v -25.277069 10.106551 4.710664
v -27.005936 10.106551 4.711451
v -28.425156 8.347390 4.711907
v -28.425156 10.106551 4.711907
v -23.986870 8.347390 4.710327
v -20.605263 8.347390 4.709397
v -20.605263 10.106552 4.709397
v -23.986870 10.106551 4.710327
v -19.395056 8.347390 4.709112
v -17.329449 8.347391 4.708536
v -17.329449 10.106551 4.708536
v -19.395056 10.106551 4.709112
v -22.103176 8.347390 6.308666
v -23.986866 8.347390 6.308666
v -23.986866 10.106551 6.308666
v -22.103176 10.106551 6.308666
v -32.037701 8.347390 4.712496
v -32.037701 10.106551 4.712496
v -17.329449 8.347391 6.308666
v -17.329449 10.106551 6.308666
v -19.395054 8.347390 6.308666
v -19.395054 10.106551 6.308666
v -23.986870 8.347391 3.551149
v -25.277069 8.347391 3.551486
v -28.425140 8.347390 6.308666
v -28.425140 8.347391 7.370306
v -27.005926 8.347391 7.370306
v -30.378197 8.347390 6.308666
v -30.378199 8.347390 7.931808
v -30.386248 10.106551 9.458069
v -30.378197 10.106551 6.308666
v -32.037701 8.347390 7.935768
v -32.037701 10.106551 9.458069
v -20.605261 8.347390 7.447716
v -28.425140 10.106551 6.308666
v -28.425140 10.106551 7.370306
v -27.005926 10.106551 7.370306
v -25.277069 10.106551 3.551486
v -23.986870 10.106551 3.551149
v -22.103176 10.106551 7.447716
v -20.605261 10.106551 7.447716
v -20.605263 10.106551 2.415947
v -19.395056 10.106551 1.368317
v -31.009373 12.930831 2.415947
v -32.237637 12.930830 2.415947
v -32.237640 12.930830 -5.818414
v -31.009377 12.930831 -5.818413
v -32.237640 10.106551 -5.818414
v -31.009377 10.106551 -5.818414
v -31.009373 10.106551 2.415947
v -32.237637 10.106551 2.415947
v -20.605263 8.347390 2.415958
v -31.009373 8.347390 2.415947
v -31.009377 8.347391 -5.818414
v -19.395056 8.347390 1.368328
v -32.237637 8.347391 2.415947
v -32.237640 8.347390 -5.818413
v -22.103176 8.347391 7.447716
v -32.037701 2.390888 7.935768
v -30.386248 2.390888 7.935768
v -30.386248 2.390888 9.458069
v -32.037701 2.390888 9.458069
vt 0.175094 0.420491
vt 0.203207 0.420491
vt 0.203207 0.451398
vt 0.175094 0.451398
vt 0.175181 0.383450
vt 0.207023 0.383450
vt 0.131976 0.378580
vt 0.175181 0.417624
vt 0.004361 0.378580
vt 0.004361 0.403641
vt 0.261013 0.378068
vt 0.261013 0.346006
vt 0.319781 0.346006
vt 0.131976 0.431007
vt 0.004361 0.456332
vt 0.004361 0.431007
vt 0.423336 0.079914
vt 0.423336 0.224584
vt 0.373715 0.224584
vt 0.373715 0.079914
vt 0.454243 0.079914
vt 0.454243 0.224584
vt 0.260762 0.455160
vt 0.281127 0.455160
vt 0.281127 0.486067
vt 0.260762 0.486067
vt 0.217727 0.455160
vt 0.238093 0.455160
vt 0.238093 0.486067
vt 0.217727 0.486067
vt 0.272189 0.416376
vt 0.253535 0.416376
vt 0.253535 0.385470
vt 0.272189 0.385470
vt 0.343521 0.454951
vt 0.131575 0.373974
vt 0.097753 0.373974
vt 0.097753 0.328746
vt 0.228602 0.416376
vt 0.209948 0.416376
vt 0.209948 0.385470
vt 0.228602 0.385470
vt 0.251352 0.139035
vt 0.040296 0.328745
vt 0.138803 0.451398
vt 0.251352 0.108127
vt 0.011382 0.139031
vt 0.011383 0.108128
vt 0.011383 0.058509
vt 0.193959 0.454679
vt 0.213971 0.454680
vt 0.242386 0.451957
vt 0.193959 0.485586
vt 0.272298 0.141530
vt 0.272298 0.164197
vt 0.251932 0.164197
vt 0.251932 0.141530
vt 0.300375 0.141530
vt 0.300375 0.164197
vt 0.272298 0.111156
vt 0.300375 0.111155
vt 0.300375 0.197291
vt 0.017395 0.328746
vt 0.272298 0.086222
vt 0.300375 0.086221
vt 0.320387 0.197291
vt 0.320387 0.223608
vt 0.272298 0.022754
vt 0.300375 0.051909
vt 0.319027 0.086222
vt 0.319027 0.111156
vt 0.300375 0.244870
vt 0.272298 0.244870
vt 0.328927 0.022754
vt 0.328927 0.051909
vt 0.300375 0.281160
vt 0.272298 0.281160
vt 0.040296 0.373974
vt 0.056506 0.317093
vt 0.239298 0.172422
vt 0.239298 0.317093
vt 0.260878 0.172422
vt 0.260878 0.317093
vt 0.360049 0.341571
vt 0.360049 0.276269
vt 0.326932 0.276269
vt 0.326932 0.310853
vt 0.360049 0.252236
vt 0.326932 0.252236
vt 0.264719 0.341571
vt 0.264719 0.310853
vt 0.326932 0.224896
vt 0.360049 0.224896
vt 0.305563 0.276269
vt 0.305563 0.252236
vt 0.326932 0.204520
vt 0.360049 0.204520
vt 0.369051 0.224896
vt 0.369051 0.204520
vt 0.326933 0.170136
vt 0.314125 0.170136
vt 0.314125 0.147898
vt 0.340784 0.129962
vt 0.074118 0.328745
vt 0.243078 0.161551
vt 0.360049 0.096765
vt 0.340784 0.096765
vt 0.032835 0.145854
vt 0.034989 0.290313
vt 0.011287 0.146175
vt 0.013441 0.290634
vt 0.298148 0.421049
vt 0.328523 0.421049
vt 0.328523 0.451957
vt 0.298148 0.451957
vt 0.275480 0.421049
vt 0.275480 0.451957
vt 0.169309 0.378068
vt 0.137800 0.378068
vt 0.137800 0.346006
vt 0.169309 0.346006
vt 0.195174 0.378068
vt 0.195174 0.346006
vt 0.284109 0.454951
vt 0.284109 0.485858
vt 0.239498 0.420491
vt 0.138442 0.485586
vt 0.167641 0.454680
vt 0.167641 0.485586
vt 0.275936 0.415932
vt 0.275936 0.394353
vt 0.325557 0.394353
vt 0.325557 0.415932
vt 0.023807 0.041120
vt 0.206599 0.041120
vt 0.206598 0.090741
vt 0.023807 0.010213
vt 0.206599 0.010213
vt 0.228178 0.041120
vt 0.228178 0.090741
vt 0.228178 0.010213
vt 0.138072 0.417624
vt 0.138073 0.383450
vt 0.131976 0.403641
vt 0.131976 0.456332
vt 0.131976 0.483632
vt 0.004361 0.483632
vt 0.017395 0.373974
vt 0.035244 0.298687
vt 0.074118 0.373974
vt 0.221964 0.143033
vt 0.319781 0.378068
vt 0.207023 0.417624
vt 0.242386 0.421049
vt 0.213971 0.485586
vt 0.138443 0.454679
vt 0.239498 0.451398
vt 0.138803 0.420491
vt 0.272298 0.223608
vt 0.131576 0.328745
vt 0.343521 0.485858
vt 0.360049 0.147897
vt 0.360049 0.129962
vn 0.000000 0.000000 -1.000000
vn 0.000000 0.000000 -1.000000
vn 0.000000 0.000000 -1.000000
vn 0.000000 0.000000 -1.000000
vn 0.000455 0.000000 1.000000
vn 0.000455 0.000000 1.000000
vn 0.000455 0.000000 1.000000
vn 0.000455 0.000000 1.000000
vn 0.000322 0.000000 1.000000
vn 0.000322 0.000000 1.000000
vn 0.000322 0.000000 1.000000
vn 0.000322 0.000000 1.000000
vn 0.000275 0.000000 1.000000
vn 0.000275 0.000000 1.000000
vn 0.000275 0.000000 1.000000
vn 0.000275 0.000000 1.000000
vn 0.000279 0.000000 1.000000
vn 0.000279 0.000000 1.000000
vn 0.000279 0.000000 1.000000
vn 0.000279 0.000000 1.000000
vn 0.000000 0.000000 -1.000000
vn 0.000000 0.000000 -1.000000
vn 0.000000 0.000000 -1.000000
vn 0.000000 0.000000 -1.000000
vn 0.000163 0.000000 1.000000
vn 0.000163 0.000000 1.000000
vn 0.000163 0.000000 1.000000
vn 0.000163 0.000000 1.000000
vn -1.000000 0.000000 0.000000
vn -1.000000 0.000000 0.000000
vn -1.000000 0.000000 0.000000
vn -1.000000 0.000000 0.000000
vn 0.000000 0.000000 -1.000000
vn 0.000000 0.000000 -1.000000
vn 0.000000 0.000000 -1.000000
vn 0.000000 0.000000 -1.000000
vn 0.000000 0.000000 -1.000000
vn 0.000000 0.000000 -1.000000
vn 0.000000 0.000000 -1.000000
vn 0.000000 0.000000 -1.000000
vn 0.000000 1.000000 0.000001
vn 0.000000 1.000000 0.000001
vn 0.000000 1.000000 0.000001
vn 0.000000 1.000000 0.000001
vn 0.000000 1.000000 -0.000000
vn 0.000000 1.000000 -0.000000
vn 0.000000 1.000000 -0.000000
vn 0.000000 1.000000 -0.000000
vn -0.999997 -0.001554 -0.001687
vn -0.999997 -0.001554 -0.001687
vn -0.999997 -0.001554 -0.001687
vn -0.999997 -0.001554 -0.001687
vn 0.000000 1.000000 -0.000000
vn 0.000000 1.000000 -0.000000
vn 0.000000 1.000000 -0.000000
vn 0.000000 1.000000 -0.000000
vn 1.000000 0.000000 0.000000
vn 1.000000 0.000000 0.000000
vn 1.000000 0.000000 0.000000
vn 1.000000 0.000000 0.000000
vn -0.000000 1.000000 0.000000
vn -0.000000 1.000000 0.000000
vn -0.000000 1.000000 0.000000
vn -0.000000 1.000000 0.000000
vn 0.000000 1.000000 0.000000
vn 0.000000 1.000000 0.000000
vn 0.000000 1.000000 0.000000
vn 0.000000 1.000000 0.000000
vn 0.000000 -1.000000 0.000000
vn 0.000000 -1.000000 0.000000
vn 0.000000 -1.000000 0.000000
vn 0.000000 -1.000000 0.000000
vn 0.000000 -1.000000 0.000000
vn 0.000000 -1.000000 0.000000
vn 0.000000 -1.000000 0.000000
vn 0.000000 -1.000000 0.000000
vn 0.000000 -1.000000 -0.000000
vn 0.000000 -1.000000 -0.000000
vn 0.000000 -1.000000 -0.000000
vn 0.000000 -1.000000 -0.000000
vn 0.000000 -1.000000 0.000000
vn 0.000000 -1.000000 0.000000
vn 0.000000 -1.000000 0.000000
vn 0.000000 -1.000000 0.000000
vn 0.000000 -1.000000 -0.000000
vn 0.000000 -1.000000 -0.000000
vn 0.000000 -1.000000 -0.000000
vn 0.000000 -1.000000 -0.000000
vn 0.000000 -1.000000 0.000000
vn 0.000000 -1.000000 0.000000
vn 0.000000 -1.000000 0.000000
vn 0.000000 -1.000000 0.000000
vn 0.000000 -1.000000 0.000000
vn 0.000000 -1.000000 0.000000
vn 0.000000 -1.000000 0.000000
vn 0.000000 -1.000000 0.000000
vn 0.000000 -1.000000 0.000000
vn 0.000000 -1.000000 0.000000
vn 0.000000 -1.000000 0.000000
vn 0.000000 -1.000000 0.000000
vn 0.000000 -1.000000 -0.000000
vn 0.000000 -1.000000 -0.000000
vn 0.000000 -1.000000 -0.000000
vn 0.000000 -1.000000 -0.000000
vn -0.000000 -1.000000 -0.000000
vn -0.000000 -1.000000 -0.000000
vn -0.000000 -1.000000 -0.000000
vn -0.000000 -1.000000 -0.000000
vn 0.000000 -1.000000 0.000000
vn 0.000000 -1.000000 0.000000
vn 0.000000 -1.000000 0.000000
vn 0.000000 -1.000000 0.000000
vn -0.000000 -1.000000 0.000000
vn -0.000000 -1.000000 0.000000
vn -0.000000 -1.000000 0.000000
vn -0.000000 -1.000000 0.000000
vn 0.000001 -1.000000 0.000000
vn 0.000001 -1.000000 0.000000
vn 0.000001 -1.000000 0.000000
vn 0.000001 -1.000000 0.000000
vn -0.238823 -0.970564 -0.031138
vn -0.238823 -0.970564 -0.031138
vn -0.238823 -0.970564 -0.031138
vn -0.238823 -0.970564 -0.031138
vn 0.000000 -0.000000 1.000000
vn 0.000000 -0.000000 1.000000
vn 0.000000 -0.000000 1.000000
vn 0.000000 -0.000000 1.000000
vn -0.000000 0.000000 -1.000000
vn -0.000000 0.000000 -1.000000
vn -0.000000 0.000000 -1.000000
vn -0.526191 0.000000 0.850366
vn -0.526191 0.000000 0.850366
vn -0.526191 0.000000 0.850366
vn -0.000000 0.000000 -1.000000
vn -0.000000 0.000000 -1.000000
vn -0.000000 0.000000 -1.000000
vn -0.000000 0.000000 -1.000000
vn 1.000000 0.000001 -0.000000
vn 1.000000 0.000001 -0.000000
vn 1.000000 0.000001 -0.000000
vn 1.000000 0.000001 -0.000000
vn 0.000001 -0.000003 -1.000000
vn 0.000001 -0.000003 -1.000000
vn 0.000001 -0.000003 -1.000000
vn 0.000001 -0.000003 -1.000000
vn -0.526192 0.000003 0.850366
vn -0.526192 0.000003 0.850366
vn -0.526192 0.000003 0.850366
vn -0.526192 0.000003 0.850366
vn 1.000000 -0.000001 -0.000000
vn 1.000000 -0.000001 -0.000000
vn 1.000000 -0.000001 -0.000000
vn 1.000000 -0.000001 -0.000000
vn 0.000000 0.000000 -1.000000
vn 0.000000 0.000000 -1.000000
vn 0.000000 0.000000 -1.000000
vn 0.000000 0.000000 -1.000000
vn 0.000000 1.000000 0.000000
vn 0.000000 1.000000 0.000000
vn 0.000000 1.000000 0.000000
vn 0.000000 1.000000 0.000000
vn -0.000000 0.000000 -1.000000
vn -0.000000 0.000000 -1.000000
vn -0.000000 0.000000 -1.000000
vn -0.000000 0.000000 -1.000000
vn 0.000261 0.000000 1.000000
vn 0.000261 0.000000 1.000000
vn 0.000261 0.000000 1.000000
vn 0.000261 0.000000 1.000000
vn -1.000000 0.000000 0.000000
vn -1.000000 0.000000 0.000000
vn -1.000000 0.000000 0.000000
vn -1.000000 0.000000 0.000000
vn 1.000000 0.000000 0.000000
vn 1.000000 0.000000 0.000000
vn 1.000000 0.000000 0.000000
vn 1.000000 0.000000 0.000000
vn 0.000000 0.000000 -1.000000
vn 0.000000 0.000000 -1.000000
vn 0.000000 0.000000 -1.000000
vn 0.000000 0.000000 -1.000000
vn 0.000000 1.000000 -0.000000
vn 0.000000 1.000000 -0.000000
vn 0.000000 1.000000 -0.000000
vn 0.000000 1.000000 -0.000000
vn 0.000000 1.000000 -0.000000
vn 0.000000 1.000000 -0.000000
vn 0.000000 1.000000 -0.000000
vn 0.000000 1.000000 -0.000000
vn 0.000000 1.000000 0.000000
vn 0.000000 1.000000 0.000000
vn 0.000000 1.000000 0.000000
vn 0.000000 1.000000 0.000000
vn 0.000000 1.000000 -0.000001
vn 0.000000 1.000000 -0.000001
vn 0.000000 1.000000 -0.000001
vn 0.000000 1.000000 -0.000001
vn -0.685375 0.000000 -0.728191
vn -0.685375 0.000000 -0.728191
vn -0.685375 0.000000 -0.728191
vn -0.685375 0.000000 -0.728191
vn -1.000000 0.000000 -0.000002
vn -1.000000 0.000000 -0.000002
vn -1.000000 0.000000 -0.000002
vn -1.000000 0.000000 -0.000002
vn 1.000000 0.000000 0.000000
vn 1.000000 0.000000 0.000000
vn 1.000000 0.000000 0.000000
vn 1.000000 0.000000 0.000000
vn 1.000000 0.000000 0.000000
vn 1.000000 0.000000 0.000000
vn 1.000000 0.000000 0.000000
vn 1.000000 0.000000 0.000000
vn -1.000000 0.000000 0.000000
vn -1.000000 0.000000 0.000000
vn -1.000000 0.000000 0.000000
vn -1.000000 0.000000 0.000000
vn 1.000000 0.000000 0.000000
vn 1.000000 0.000000 0.000000
vn 1.000000 0.000000 0.000000
vn 1.000000 0.000000 0.000000
vn 0.000000 0.000000 -1.000000
vn 0.000000 0.000000 -1.000000
vn 0.000000 0.000000 -1.000000
vn 0.000000 0.000000 -1.000000
vn -0.000000 1.000000 0.000000
vn -0.000000 1.000000 0.000000
vn -0.000000 1.000000 0.000000
vn -0.000000 1.000000 0.000000
vn 0.000000 1.000000 0.000000
vn 0.000000 1.000000 0.000000
vn 0.000000 1.000000 0.000000
vn 0.000000 1.000000 0.000000
vn 0.000000 1.000000 0.000000
vn 0.000000 1.000000 0.000000
vn 0.000000 1.000000 0.000000
vn 0.000000 1.000000 0.000000
vn 0.000000 1.000000 0.000000
vn 0.000000 1.000000 0.000000
vn 0.000000 1.000000 0.000000
vn 0.000000 1.000000 0.000000
vn 0.001196 0.000332 0.999999
vn 0.001196 0.000332 0.999999
vn 0.001196 0.000332 0.999999
vn 0.001196 0.000332 0.999999
vn -0.999995 0.000588 -0.002979
vn -0.999995 0.000588 -0.002979
vn -0.999995 0.000588 -0.002979
vn -0.999995 0.000588 -0.002979
vn 1.000000 0.000000 0.000000
vn 1.000000 0.000000 0.000000
vn 1.000000 0.000000 0.000000
vn 1.000000 0.000000 0.000000
vn 0.000000 0.000000 -1.000000
vn 0.000000 0.000000 -1.000000
vn 0.000000 0.000000 -1.000000
vn 0.000000 0.000000 -1.000000
s off
g initialShadingGroup SalleChiante
f 1/112/1 2/113/2 3/114/3 4/115/4
f 5/118/5 6/119/6 7/120/7 8/121/8
f 9/122/9 5/118/10 8/121/11 10/123/12
f 11/124/13 12/35/14 13/161/15 14/125/16
f 15/158/17 16/1/18 17/4/19 18/45/20
f 19/154/21 20/116/22 21/117/23 22/52/24
f 23/11/25 9/122/26 10/123/27 24/12/28
f 16/1/29 25/2/30 26/3/31 17/4/32
f 20/116/33 1/112/34 4/115/35 21/117/36
f 25/2/37 27/126/38 28/157/39 26/3/40
f 6/54/41 11/55/42 29/56/43 30/57/44
f 2/61/45 31/65/46 32/70/47 33/71/48
f 34/5/49 35/6/50 36/153/51 37/8/52
f 34/69/53 23/68/54 38/74/55 35/75/56
f 23/11/57 24/12/58 39/13/59 38/152/60
f 15/73/61 27/72/62 25/76/63 16/77/64
f 27/72/65 15/73/66 12/159/67 40/67/68
f 24/84/69 10/85/70 41/86/71 37/87/72
f 39/90/73 24/84/74 37/87/75 36/91/76
f 4/92/77 3/89/78 8/88/79 7/93/80
f 21/96/81 4/92/82 7/93/83 14/97/84
f 22/100/85 21/96/86 14/97/87 13/162/88
f 10/85/89 8/88/90 3/89/91 41/86/92
f 42/94/93 41/86/94 3/89/95 43/95/96
f 7/93/97 44/98/98 45/99/99 14/97/100
f 46/101/101 22/100/102 13/162/103 47/102/104
f 28/103/105 47/102/106 13/162/107 18/163/108
f 18/163/109 17/106/110 26/107/111 28/103/112
f 13/38/113 48/37/114 49/150/115 18/104/116
f 50/108/117 51/110/118 52/111/119 53/109/120
f 48/151/121 50/108/122 53/109/123 49/105/124
f 54/130/125 55/131/126 53/132/127 52/133/128
f 48/134/129 56/135/130 50/136/131
f 55/48/132 49/46/133 53/49/134
f 56/135/135 57/139/136 51/140/137 50/136/138
f 57/17/139 54/18/140 52/19/141 51/20/142
f 58/137/143 59/138/144 56/135/145 48/134/146
f 60/47/147 61/43/148 49/46/149 55/48/150
f 62/21/151 63/22/152 54/18/153 57/17/154
f 59/138/155 62/141/156 57/139/157 56/135/158
f 58/79/159 61/149/160 60/80/161 59/81/162
f 34/5/163 37/8/164 41/142/165 31/143/166
f 30/28/167 29/23/168 45/26/169 44/29/170
f 29/23/171 11/24/172 14/25/173 45/26/174
f 6/27/175 30/28/176 44/29/177 7/30/178
f 33/32/179 32/39/180 42/42/181 43/33/182
f 9/64/183 31/65/184 2/61/185 5/60/186
f 6/54/187 1/58/188 20/59/189 11/55/190
f 23/68/191 34/69/192 31/65/193 9/64/194
f 12/159/195 19/62/196 64/66/197 40/67/198
f 27/156/199 40/128/200 47/129/201 28/127/202
f 2/31/203 33/32/204 43/33/205 3/34/206
f 12/160/207 58/36/208 48/37/209 13/38/210
f 32/39/211 31/40/212 41/41/213 42/42/214
f 61/78/215 15/44/216 18/104/217 49/150/218
f 64/50/219 19/51/220 22/155/221 46/53/222
f 40/128/223 64/50/224 46/53/225 47/129/226
f 59/81/227 60/80/228 63/82/229 62/83/230
f 12/63/231 15/44/232 61/78/233 58/148/234
f 11/55/235 20/59/236 19/62/237 12/159/238
f 5/60/239 2/61/240 1/58/241 6/54/242
f 38/14/243 65/16/244 66/10/245 35/144/246
f 67/9/247 36/7/248 35/144/249 66/10/250
f 68/15/251 65/16/252 38/14/253 39/145/254
f 68/15/255 39/145/256 36/146/257 67/147/258
