# This file uses centimeters as units for non-parametric coordinates.

mtllib 4Octogone.mtl
g default
v -31.009377 8.347390 -12.651111
v -32.237640 8.347390 -12.651111
v -31.009377 8.347390 -13.999801
v -32.237640 8.347390 -13.999801
v -33.489990 8.347390 -12.651111
v -34.597836 8.347390 -13.999801
v -18.616539 7.444215 -12.651111
v -20.085155 7.444215 -13.999801
v -33.489990 8.347390 -4.462680
v -34.597836 8.347390 -4.462680
v -18.616539 8.290422 -18.947010
v -20.085155 8.290422 -18.947010
v -20.083231 7.444215 -12.651111
v -18.616539 7.444215 -13.983178
v -18.616539 8.290422 -20.506691
v -20.085155 8.290422 -20.506691
v -21.775539 8.290422 -18.947010
v -21.775539 8.290422 -20.506691
v -28.102890 8.290422 -18.947010
v -28.102890 8.290422 -20.506691
v -31.644974 8.290422 -18.947010
v -30.082289 8.290422 -20.506691
v -31.644974 8.290422 -23.656879
v -30.082289 8.290422 -23.656879
v -23.229080 8.290422 -16.693211
v -26.607582 8.290423 -16.693211
v -23.229080 8.290423 -22.733891
v -26.607582 8.290422 -22.733891
v -31.009377 8.347390 -5.818413
v -32.237640 8.347390 -5.818413
v -32.237640 10.106551 -5.818413
v -31.009377 10.106551 -5.818413
v -31.009377 10.106551 -12.651111
v -32.237640 10.106552 -12.651111
v -31.009377 10.105807 -13.999801
v -32.237640 10.106552 -13.999801
v -33.489990 10.106552 -12.651111
v -34.597836 10.106552 -13.999801
v -33.489990 10.106552 -4.462680
v -34.597836 10.106552 -4.462680
v -20.083231 9.202633 -12.651111
v -20.085155 9.202633 -13.999801
v -18.616539 9.202632 -12.651111
v -18.616539 9.202632 -13.983178
v -20.085155 10.048839 -18.947010
v -18.616539 10.048839 -18.947010
v -18.616539 10.048839 -20.506691
v -20.085155 10.048839 -20.506691
v -21.775539 10.048839 -18.947010
v -21.775539 10.048839 -20.506691
v -23.229080 10.048839 -16.693211
v -28.102890 10.048839 -18.947010
v -26.607582 10.048839 -16.693211
v -23.229080 10.048839 -22.733891
v -28.102890 10.048839 -20.506691
v -26.607582 10.048839 -22.733891
v -31.644974 10.048840 -18.947010
v -30.082289 10.048840 -20.506691
v -31.644974 10.048840 -23.656879
v -30.082289 10.048840 -23.656879
v -21.775539 11.502641 -18.947010
v -23.229080 11.502641 -16.693211
v -28.102890 11.502641 -18.947010
v -26.607582 11.502641 -16.693211
v -21.775539 11.502641 -20.506691
v -23.229080 11.502641 -22.733891
v -28.102890 11.502641 -20.506691
v -26.607582 11.502641 -22.733891
vt 0.739626 0.347893
vt 0.739626 0.469100
vt 0.708420 0.469100
vt 0.708420 0.347893
vt 0.809033 0.027358
vt 0.809033 0.148565
vt 0.777826 0.148565
vt 0.777826 0.027358
vt 0.579360 0.347865
vt 0.579360 0.487128
vt 0.548154 0.487128
vt 0.548154 0.347865
vt 0.809070 0.150224
vt 0.809070 0.319406
vt 0.777863 0.319406
vt 0.777863 0.150224
vt 0.537854 0.438279
vt 0.537854 0.461909
vt 0.506661 0.461909
vt 0.506661 0.438279
vt 0.522843 0.350224
vt 0.491650 0.350224
vt 0.522843 0.322556
vt 0.491650 0.322556
vt 0.457942 0.351263
vt 0.472953 0.439023
vt 0.504146 0.439023
vt 0.489135 0.351263
vt 0.584327 0.235787
vt 0.584327 0.319337
vt 0.553134 0.319337
vt 0.553134 0.235787
vt 0.651743 0.287126
vt 0.707625 0.287125
vt 0.707625 0.318319
vt 0.651743 0.318319
vt 0.703756 0.396581
vt 0.676665 0.396581
vt 0.676665 0.422732
vt 0.703756 0.422732
vt 0.676665 0.346866
vt 0.703756 0.346866
vt 0.676665 0.471734
vt 0.703756 0.471734
vt 0.644522 0.346866
vt 0.644522 0.396581
vt 0.644591 0.422732
vt 0.644591 0.471734
vt 0.614985 0.422932
vt 0.640665 0.422932
vt 0.640665 0.395502
vt 0.614985 0.395502
vt 0.614985 0.471666
vt 0.640665 0.471666
vt 0.614985 0.347222
vt 0.640665 0.347222
vt 0.582874 0.422932
vt 0.582874 0.471666
vt 0.583105 0.347222
vt 0.583105 0.395502
vt 0.767326 0.345355
vt 0.745475 0.345355
vt 0.745476 0.321416
vt 0.767315 0.321374
vt 0.767326 0.466909
vt 0.745475 0.466909
vt 0.551009 0.345343
vt 0.551020 0.321452
vt 0.809313 0.321361
vt 0.789605 0.345356
vt 0.525037 0.345327
vt 0.525159 0.321733
vt 0.809313 0.491028
vt 0.789605 0.491028
vt 0.525134 0.233282
vt 0.551048 0.233284
vt 0.525034 0.205622
vt 0.551093 0.205592
vt 0.581203 0.205604
vt 0.527114 0.170626
vt 0.499447 0.058383
vt 0.775192 0.318922
vt 0.459937 0.144841
vt 0.459937 0.084909
vt 0.740079 0.291255
vt 0.712358 0.318922
vt 0.567095 0.084908
vt 0.567095 0.144841
vt 0.740079 0.235373
vt 0.712358 0.235373
vt 0.712078 0.205976
vt 0.774912 0.205976
vt 0.747191 0.233644
vt 0.712078 0.233644
vt 0.774912 0.289526
vt 0.747191 0.289526
vt 0.679167 0.144358
vt 0.639658 0.170143
vt 0.639658 0.057900
vt 0.679167 0.084426
vt 0.611990 0.170143
vt 0.611990 0.057900
vt 0.572009 0.144358
vt 0.572009 0.084426
vt 0.490378 0.290315
vt 0.520450 0.290315
vt 0.520450 0.318061
vt 0.490378 0.318061
vt 0.464263 0.318055
vt 0.464464 0.290367
vt 0.490272 0.202224
vt 0.464422 0.201928
vt 0.464268 0.178323
vt 0.490247 0.178329
vt 0.684727 0.178329
vt 0.684725 0.202268
vt 0.706573 0.178344
vt 0.706565 0.202299
vt 0.684713 0.056760
vt 0.706569 0.056759
vt 0.728848 0.178312
vt 0.748557 0.202305
vt 0.728848 0.032641
vt 0.748557 0.032641
vt 0.414253 0.274999
vt 0.414253 0.296788
vt 0.383060 0.296788
vt 0.383047 0.275000
vt 0.430274 0.490576
vt 0.399081 0.490576
vt 0.414253 0.233131
vt 0.383047 0.233131
vt 0.644171 0.420844
vt 0.644171 0.398629
vt 0.675377 0.398629
vt 0.675377 0.420844
vt 0.523227 0.223208
vt 0.492021 0.223208
vt 0.492021 0.203555
vt 0.523227 0.203555
vt 0.419684 0.290016
vt 0.435706 0.483838
vt 0.466912 0.483838
vt 0.450877 0.290016
vt 0.419684 0.263998
vt 0.450877 0.263998
vt 0.681626 0.253617
vt 0.707678 0.253617
vt 0.707679 0.284810
vt 0.681627 0.284810
vt 0.651640 0.253617
vt 0.651640 0.284810
vt 0.648673 0.205619
vt 0.678660 0.205619
vt 0.678660 0.236813
vt 0.648673 0.236813
vt 0.647229 0.319147
vt 0.587296 0.319147
vt 0.587296 0.287954
vt 0.647229 0.287954
vt 0.587296 0.262164
vt 0.647229 0.262164
vt 0.587114 0.203551
vt 0.647046 0.203551
vt 0.647046 0.234745
vt 0.587114 0.234745
vt 0.647046 0.260534
vt 0.587114 0.260534
vt 0.491780 0.287142
vt 0.491780 0.224308
vt 0.522973 0.224308
vt 0.522973 0.287142
vt 0.711060 0.205650
vt 0.711060 0.240763
vt 0.679867 0.240763
vt 0.679867 0.205650
vt 0.527114 0.058383
vt 0.775192 0.291255
vt 0.581177 0.233365
vt 0.499447 0.170626
vn 0.000000 1.000000 0.000000
vn 0.000000 1.000000 0.000000
vn 0.000000 1.000000 0.000000
vn 0.000000 1.000000 0.000000
vn 0.000000 1.000000 0.000000
vn 0.000000 1.000000 0.000000
vn 0.000000 1.000000 0.000000
vn 0.000000 1.000000 0.000000
vn 0.050313 0.997383 0.051914
vn 0.072723 0.997352 -0.000052
vn 0.000000 1.000000 0.000000
vn -0.000752 0.991139 0.132826
vn 0.000000 1.000000 0.000000
vn 0.000000 1.000000 0.000000
vn 0.000000 1.000000 0.000000
vn 0.000000 1.000000 0.000000
vn -0.000953 0.985731 0.168324
vn -0.000953 0.985731 0.168324
vn 0.082388 0.996600 -0.000059
vn 0.082388 0.996600 -0.000059
vn 0.000000 1.000000 0.000000
vn 0.000000 1.000000 0.000000
vn 0.000000 1.000000 0.000000
vn 0.000000 1.000000 0.000000
vn 0.000000 1.000000 0.000000
vn 0.000000 1.000000 0.000000
vn 0.000000 1.000000 0.000000
vn 0.000000 1.000000 0.000000
vn 0.000000 1.000000 0.000000
vn 0.000000 1.000000 0.000000
vn 0.000000 1.000000 0.000000
vn 0.000000 1.000000 0.000000
vn 0.000000 1.000000 0.000000
vn 0.000000 1.000000 0.000000
vn 0.000000 1.000000 0.000000
vn 0.000000 1.000000 0.000000
vn 0.000000 1.000000 0.000000
vn 0.000000 1.000000 0.000000
vn 0.000000 1.000000 0.000000
vn 0.000000 1.000000 0.000000
vn 0.000000 1.000000 0.000000
vn 0.000000 1.000000 0.000000
vn 0.000000 1.000000 0.000000
vn 0.000000 1.000000 0.000000
vn -0.000000 1.000000 0.000000
vn -0.000000 1.000000 0.000000
vn -0.000000 1.000000 0.000000
vn -0.000000 1.000000 0.000000
vn 0.000000 1.000000 0.000000
vn 0.000000 1.000000 0.000000
vn 0.000000 1.000000 0.000000
vn 0.000000 1.000000 0.000000
vn -1.000000 0.000000 0.000000
vn -1.000000 0.000000 0.000000
vn -1.000000 0.000000 0.000000
vn -1.000000 0.000000 0.000000
vn 1.000000 0.000000 0.000000
vn 1.000000 0.000000 0.000000
vn 1.000000 0.000000 0.000000
vn 1.000000 0.000000 0.000000
vn 0.000000 0.000000 1.000000
vn 0.000000 0.000000 1.000000
vn 0.000000 0.000000 1.000000
vn 0.000000 0.000000 1.000000
vn 0.000000 0.000000 -1.000000
vn 0.000000 0.000000 -1.000000
vn 0.000000 0.000000 -1.000000
vn 0.000000 0.000000 -1.000000
vn 0.000000 0.000000 1.000000
vn 0.000000 0.000000 1.000000
vn 0.000000 0.000000 1.000000
vn 0.000000 0.000000 1.000000
vn -1.000000 0.000000 0.000000
vn -1.000000 0.000000 0.000000
vn -1.000000 0.000000 0.000000
vn -1.000000 0.000000 0.000000
vn 1.000000 0.000000 0.000000
vn 1.000000 0.000000 0.000000
vn 1.000000 0.000000 0.000000
vn 1.000000 0.000000 0.000000
vn 0.000000 0.000000 -1.000000
vn 0.000000 0.000000 -1.000000
vn 0.000000 0.000000 -1.000000
vn 0.000000 0.000000 -1.000000
vn 0.000000 0.000000 -1.000000
vn 0.000000 0.000000 -1.000000
vn 0.000000 0.000000 -1.000000
vn 0.000000 0.000000 -1.000000
vn 0.000000 0.000000 1.000000
vn 0.000000 0.000000 1.000000
vn 0.000000 0.000000 1.000000
vn 0.000000 0.000000 1.000000
vn -1.000000 0.000000 0.000000
vn -1.000000 0.000000 0.000000
vn -1.000000 0.000000 0.000000
vn -1.000000 0.000000 0.000000
vn 1.000000 0.000000 0.000000
vn 1.000000 0.000000 0.000000
vn 1.000000 0.000000 0.000000
vn 1.000000 0.000000 0.000000
vn 0.000000 0.000000 -1.000000
vn 0.000000 0.000000 -1.000000
vn 0.000000 0.000000 -1.000000
vn 0.000000 0.000000 -1.000000
vn -1.000000 0.000000 0.000000
vn -1.000000 0.000000 0.000000
vn -1.000000 0.000000 0.000000
vn -1.000000 0.000000 0.000000
vn -1.000000 0.000000 0.000000
vn -1.000000 0.000000 0.000000
vn -1.000000 0.000000 0.000000
vn -1.000000 0.000000 0.000000
vn 0.000000 0.000000 1.000000
vn 0.000000 0.000000 1.000000
vn 0.000000 0.000000 1.000000
vn 0.000000 0.000000 1.000000
vn 0.000000 0.000000 -1.000000
vn 0.000000 0.000000 -1.000000
vn 0.000000 0.000000 -1.000000
vn 0.000000 0.000000 -1.000000
vn 0.000000 0.000000 1.000000
vn 0.000000 0.000000 1.000000
vn 0.000000 0.000000 1.000000
vn 0.000000 0.000000 1.000000
vn -0.840386 0.000000 -0.541989
vn -0.840386 0.000000 -0.541989
vn -0.840386 0.000000 -0.541989
vn -0.840386 0.000000 -0.541989
vn 0.833281 0.000000 -0.552849
vn 0.833281 0.000000 -0.552849
vn 0.833281 0.000000 -0.552849
vn 0.833281 0.000000 -0.552849
vn 0.000000 0.000000 -1.000000
vn 0.000000 0.000000 -1.000000
vn 0.000000 0.000000 -1.000000
vn 0.000000 0.000000 -1.000000
vn -0.837435 0.000000 0.546537
vn -0.837435 0.000000 0.546537
vn -0.837435 0.000000 0.546537
vn -0.837435 0.000000 0.546537
vn 0.830238 0.000000 0.557409
vn 0.830238 0.000000 0.557409
vn 0.830238 0.000000 0.557409
vn 0.830238 0.000000 0.557409
vn 0.000001 0.000000 1.000000
vn 0.000001 0.000000 1.000000
vn 0.000001 0.000000 1.000000
vn 0.000001 0.000000 1.000000
vn -0.000001 0.000000 -1.000000
vn -0.000001 0.000000 -1.000000
vn -0.000001 0.000000 -1.000000
vn -0.000001 0.000000 -1.000000
vn -0.000001 0.000000 1.000000
vn -0.000001 0.000000 1.000000
vn -0.000001 0.000000 1.000000
vn -0.000001 0.000000 1.000000
vn 1.000000 0.000000 0.000000
vn 1.000000 0.000000 0.000000
vn 1.000000 0.000000 0.000000
vn 1.000000 0.000000 0.000000
vn -1.000000 0.000000 0.000000
vn -1.000000 0.000000 0.000000
vn -1.000000 0.000000 0.000000
vn -1.000000 0.000000 0.000000
vn -0.840386 0.000000 -0.541989
vn -0.840386 0.000000 -0.541989
vn -0.840386 0.000000 -0.541989
vn -0.840386 0.000000 -0.541989
vn 0.833281 0.000000 -0.552850
vn 0.833281 0.000000 -0.552850
vn 0.833281 0.000000 -0.552850
vn 0.833281 0.000000 -0.552850
vn 0.000000 0.000000 -1.000000
vn 0.000000 0.000000 -1.000000
vn 0.000000 0.000000 -1.000000
vn 0.000000 0.000000 -1.000000
vn -0.837435 0.000000 0.546536
vn -0.837435 0.000000 0.546536
vn -0.837435 0.000000 0.546536
vn -0.837435 0.000000 0.546536
vn 0.830238 0.000000 0.557409
vn 0.830238 0.000000 0.557409
vn 0.830238 0.000000 0.557409
vn 0.830238 0.000000 0.557409
vn 0.000000 0.000000 1.000000
vn 0.000000 0.000000 1.000000
vn 0.000000 0.000000 1.000000
vn 0.000000 0.000000 1.000000
vn 1.000000 0.000000 0.000000
vn 1.000000 0.000000 0.000000
vn 1.000000 0.000000 0.000000
vn 1.000000 0.000000 0.000000
vn -1.000000 0.000000 0.000000
vn -1.000000 0.000000 0.000000
vn -1.000000 0.000000 0.000000
vn -1.000000 0.000000 0.000000
vn -0.000000 -1.000000 0.000000
vn -0.000000 -1.000000 0.000000
vn -0.000000 -1.000000 0.000000
vn -0.000000 -1.000000 0.000000
vn 0.000000 -1.000000 0.000000
vn 0.000000 -1.000000 0.000000
vn 0.000000 -1.000000 0.000000
vn 0.000000 -1.000000 0.000000
vn 0.000000 -1.000000 0.000000
vn 0.000000 -1.000000 0.000000
vn 0.000000 -1.000000 0.000000
vn 0.000000 -1.000000 0.000000
vn 0.000000 -1.000000 0.000000
vn 0.000000 -1.000000 0.000000
vn 0.000000 -1.000000 0.000000
vn 0.000000 -1.000000 0.000000
vn 0.000000 -1.000000 0.000000
vn 0.000000 -1.000000 0.000000
vn 0.000000 -1.000000 0.000000
vn 0.000000 -1.000000 0.000000
vn 0.000000 -1.000000 0.000000
vn 0.000000 -1.000000 0.000000
vn 0.000000 -1.000000 0.000000
vn 0.000000 -1.000000 0.000000
vn 0.000952 -0.985731 -0.168324
vn 0.000952 -0.985731 -0.168324
vn 0.000952 -0.985731 -0.168324
vn 0.000952 -0.985731 -0.168324
vn 0.000000 -1.000000 0.000000
vn 0.000000 -1.000000 0.000000
vn 0.000000 -1.000000 0.000000
vn 0.000000 -1.000000 0.000000
vn -0.000001 -1.000000 0.000000
vn -0.000001 -1.000000 0.000000
vn -0.000001 -1.000000 0.000000
vn -0.000001 -1.000000 0.000000
vn -0.082422 -0.996598 0.000334
vn -0.082422 -0.996598 0.000334
vn -0.082422 -0.996598 0.000334
vn -0.082422 -0.996598 0.000334
vn 0.000000 -1.000000 0.000000
vn 0.000000 -1.000000 0.000000
vn 0.000000 -1.000000 0.000000
vn 0.000000 -1.000000 0.000000
vn 0.000000 -1.000000 0.000000
vn 0.000000 -1.000000 0.000000
vn 0.000000 -1.000000 0.000000
vn 0.000000 -1.000000 0.000000
vn -0.000304 -1.000000 0.000276
vn -0.000304 -1.000000 0.000276
vn -0.000304 -1.000000 0.000276
vn -0.000304 -1.000000 0.000276
vn -0.000000 -1.000000 -0.000000
vn -0.000000 -1.000000 -0.000000
vn -0.000000 -1.000000 -0.000000
vn -0.000000 -1.000000 -0.000000
s off
g initialShadingGroup v1Octogone
f 2/61/1 1/62/2 3/63/3 4/64/4
f 2/61/5 4/64/6 6/69/7 5/70/8
s 1
f 8/68/9 13/67/10 7/71/11 14/72/12
s off
f 5/70/13 6/69/14 10/73/15 9/74/16
s 1
f 8/68/9 14/72/12 11/75/17 12/76/18
f 3/63/19 1/62/20 13/67/10 8/68/9
s off
f 12/76/21 11/75/22 15/77/23 16/78/24
f 12/76/25 16/78/26 18/79/27 17/179/28
f 17/80/29 18/180/30 20/81/31 19/177/32
f 19/82/33 20/178/34 22/85/35 21/86/36
f 21/86/37 22/85/38 24/89/39 23/90/40
f 17/80/41 19/177/42 26/87/43 25/88/44
f 20/81/45 18/180/46 27/83/47 28/84/48
f 30/65/49 29/66/50 1/62/51 2/61/52
f 1/1/53 29/2/54 32/3/55 33/4/56
f 30/5/57 2/6/58 34/7/59 31/8/60
f 4/125/61 3/126/62 35/127/63 36/128/64
f 2/133/65 5/134/66 37/135/67 34/136/68
f 6/131/69 4/125/70 36/128/71 38/132/72
f 5/9/73 9/10/74 39/11/75 37/12/76
f 10/13/77 6/14/78 38/15/79 40/16/80
f 39/137/81 9/138/82 10/139/83 40/140/84
f 13/141/85 1/142/86 33/143/87 41/144/88
f 3/126/89 8/129/90 42/130/91 35/127/92
f 14/17/93 7/18/94 43/19/95 44/20/96
f 8/25/97 12/26/98 45/27/99 42/28/100
f 7/145/101 13/141/102 41/144/103 43/146/104
f 11/21/105 14/17/106 44/20/107 46/22/108
f 15/23/109 11/21/110 46/22/111 47/24/112
f 16/147/113 15/148/114 47/149/115 48/150/116
f 12/153/117 17/154/118 49/155/119 45/156/120
f 18/151/121 16/147/122 48/150/123 50/152/124
f 17/57/125 25/58/126 51/53/127 49/49/128
f 26/45/129 19/46/130 52/38/131 53/41/132
f 25/157/133 26/158/134 53/159/135 51/160/136
f 27/59/137 18/60/138 50/52/139 54/55/140
f 20/47/141 28/48/142 56/43/143 55/39/144
f 28/163/145 27/164/146 54/165/147 56/166/148
f 19/169/149 21/170/150 57/171/151 52/172/152
f 22/173/153 20/174/154 55/175/155 58/176/156
f 21/29/157 23/30/158 59/31/159 57/32/160
f 24/33/161 22/34/162 58/35/163 60/36/164
f 49/49/165 51/53/166 62/54/167 61/50/168
f 53/41/169 52/38/170 63/37/171 64/42/172
f 51/160/173 53/159/174 64/161/175 62/162/176
f 54/55/177 50/52/178 65/51/179 66/56/180
f 55/39/181 56/43/182 68/44/183 67/40/184
f 56/166/185 54/165/186 66/167/187 68/168/188
f 63/37/189 52/38/190 55/39/191 67/40/192
f 49/49/193 61/50/194 65/51/195 50/52/196
f 52/91/197 57/92/198 58/93/199 55/94/200
f 57/92/201 59/95/202 60/96/203 58/93/204
f 66/97/205 65/98/206 67/99/207 68/100/208
f 65/98/209 61/101/210 63/102/211 67/99/212
f 61/101/213 62/103/214 64/104/215 63/102/216
f 45/105/217 49/106/218 50/107/219 48/108/220
f 42/111/221 45/105/222 46/110/223 44/112/224
f 45/105/225 48/108/226 47/109/227 46/110/228
f 43/113/229 41/114/230 42/111/231 44/112/232
f 41/114/233 33/115/234 35/116/235 42/111/236
f 34/117/237 37/121/238 38/122/239 36/118/240
f 37/121/241 39/123/242 40/124/243 38/122/244
f 35/116/245 33/115/246 34/117/247 36/118/248
f 33/115/249 32/119/250 31/120/251 34/117/252
